<?xml version="1.0" encoding="utf-8"?>
<!-- Generator: Adobe Illustrator 15.1.0, SVG Export Plug-In  -->
<!DOCTYPE svg PUBLIC "-//W3C//DTD SVG 1.1//EN" "http://www.w3.org/Graphics/SVG/1.1/DTD/svg11.dtd" [
	<!ENTITY ns_flows "http://ns.adobe.com/Flows/1.0/">
]>
<svg version="1.1"
	 xmlns="http://www.w3.org/2000/svg" xmlns:xlink="http://www.w3.org/1999/xlink" xmlns:a="http://ns.adobe.com/AdobeSVGViewerExtensions/3.0/"
	 x="0px" y="0px" width="151px" height="26px" viewBox="-0.737 -2.361 151 26"
	 overflow="visible" enable-background="new -0.737 -2.361 151 26" xml:space="preserve">
<defs>
</defs>
<path fill="#1D1D1B" d="M60.085,10.626c0,4.06-2.109,6.822-4.357,6.815c-2.368,0-4.4-2.756-4.385-6.845
	c0.016-4.089,2.077-6.859,4.428-6.85C58.127,3.752,60.099,6.539,60.085,10.626 M62.655,10.679c0-4.791-3.092-8.378-6.876-8.395
	c-3.781-0.013-6.984,3.546-7.006,8.335c-0.021,4.787,3.127,8.266,6.948,8.289C59.54,18.933,62.639,15.347,62.655,10.679
	 M85.548,13.316h-5.216l2.63-6.65L85.548,13.316z M90.245,18.916l-6.27-16.094h-1.071l-6.378,16.042h1.634l1.605-4.088h6.393
	l1.616,4.096L90.245,18.916z M114.363,13.353h-5.216l2.623-6.649L114.363,13.353z M119.062,18.953L112.775,2.86h-1.082
	l-6.374,16.043h1.63l1.603-4.081h6.387l1.613,4.094L119.062,18.953z M149.535,18.953l-7.179-9.777l6.619-6.294h-2.125l-6.61,6.294
	V2.852h-4.578v1.49h2.234l-0.06,14.604h2.332v-8.832l6.455,8.862L149.535,18.953z M70.569,10.314h-1.696V4.357h1.704
	c2.087,0,3.399,1.289,3.391,2.978c-0.007,1.692-1.334,2.98-3.409,2.98 M71.551,2.867H64.3v1.489h2.233l-0.051,14.609h2.324v-7.118
	h2.637c2.467,0.019,4.483-1.966,4.5-4.436c0.021-2.466-1.967-4.483-4.434-4.499 M97.381,17.414h-1.317v-7.21h1.616
	c2.748,0,4.028,1.624,4.088,3.379c0.074,1.962-1.489,3.95-4.387,3.82 M103.304,6.568V2.844h-9.536v14.569h-2.345v1.489h6.701
	c4.148,0,6.265-3.146,6.13-5.468c-0.141-2.593-2.315-4.103-4.551-4.551c-0.234-0.048-0.472-0.082-0.708-0.103
	c-0.685-0.069-0.913,0-2.98,0V4.238h5.846v2.347L103.304,6.568z M39.247,16.049V5.57c0.41,0.021,0.818,0.064,1.221,0.136
	c1.907,0.4,3.226,2.381,3.24,5.04c0.017,2.66-1.607,4.963-3.768,5.214c-0.214,0-0.478,0.059-0.693,0.076 M36.955,5.557v10.492
	c-0.228-0.012-0.455-0.032-0.68-0.067c-2.159-0.297-3.781-2.576-3.768-5.258c0.017-2.682,1.335-4.632,3.239-5.035
	C36.145,5.62,36.548,5.574,36.955,5.557 M39.247,2.272H34.7v1.281h2.233v0.842c-0.269,0-0.554,0-0.746,0
	c-3.409,0.022-6.155,2.802-6.134,6.211c0,0.077,0.001,0.154,0.003,0.229c0,3.396,2.398,6.099,6.182,6.391c0.202,0,0.483,0,0.746,0
	v1.915h2.292v-1.91c0.237,0,0.522,0,0.746,0c3.782-0.289,6.196-2.979,6.173-6.389c0.115-3.403-2.55-6.256-5.953-6.37
	c-0.068-0.001-0.134-0.003-0.205-0.003h-0.743L39.247,2.272z M132.651,18.924l0.068-16.073h-2.316V8.81h-6.449V2.852h-4.559v1.49
	h2.234l-0.053,14.604h2.315v-8.587h6.458v8.587L132.651,18.924z"/>
<path fill="#E30613" d="M21.419,19.669c-3.528-0.9-7.16-1.312-10.801-1.231c-3.57-0.07-7.135,0.324-10.604,1.171v1.794h21.406V19.66
	V19.669z"/>
<path fill="#E30613" d="M10.732,9.568c4.029,0.118,7.858,1.792,10.688,4.663v-1.793C19.026,8.84,15.012,6.66,10.693,6.604l0,0
	C6.395,6.682,2.407,8.862,0.015,12.438v1.793c2.843-2.84,6.651-4.503,10.667-4.663l0,0l0,0l0,0l0,0l0,0H10.732z"/>
<path fill="#E30613" d="M10.679,15.489h0.051c3.691-0.044,7.345,0.745,10.688,2.311v-1.75c-2.651-2.078-6.316-3.367-10.702-3.492
	C6.862,12.546,3.106,13.77,0,16.049v1.78c3.336-1.565,6.985-2.355,10.67-2.316L10.679,15.489z"/>
<path fill="#1D1D1B" d="M21.419,10.887c-2.421-4.468-6.361-7.343-10.801-7.343c-4.317,0-8.189,2.749-10.604,6.992V0h21.406V10.887z"
	/>
</svg>
